{
  "accessors": [
    {
      "name": "Box001_1_0_positions",
      "componentType": 5126,
      "count": 24,
      "min": [
        -23.453899383544922,
        0,
        -11.050800323486328
      ],
      "max": [
        -13.453900337219238,
        10,
        -1.0507999658584595
      ],
      "type": "VEC3",
      "bufferView": 0,
      "byteOffset": 0
    },
    {
      "name": "Box001_1_0_normals",
      "componentType": 5126,
      "count": 24,
      "min": [
        -1,
        -1,
        -1
      ],
      "max": [
        1,
        1,
        1
      ],
      "type": "VEC3",
      "bufferView": 1,
      "byteOffset": 0
    },
    {
      "name": "Box001_1_0_texcoords",
      "componentType": 5126,
      "count": 24,
      "min": [
        0,
        0
      ],
      "max": [
        1,
        1
      ],
      "type": "VEC2",
      "bufferView": 2,
      "byteOffset": 0
    },
    {
      "name": "Box001_1_0_indices",
      "componentType": 5123,
      "count": 36,
      "min": [
        0
      ],
      "max": [
        23
      ],
      "type": "SCALAR",
      "bufferView": 3,
      "byteOffset": 0
    },
    {
      "name": "Box002_1_0_positions",
      "componentType": 5126,
      "count": 24,
      "min": [
        -12.453900337219238,
        0,
        -11.050800323486328
      ],
      "max": [
        -2.453900098800659,
        10,
        -1.0507999658584595
      ],
      "type": "VEC3",
      "bufferView": 0,
      "byteOffset": 288
    },
    {
      "name": "Box002_1_0_normals",
      "componentType": 5126,
      "count": 24,
      "min": [
        -1,
        -1,
        -1
      ],
      "max": [
        1,
        1,
        1
      ],
      "type": "VEC3",
      "bufferView": 1,
      "byteOffset": 288
    },
    {
      "name": "Box002_1_0_texcoords",
      "componentType": 5126,
      "count": 24,
      "min": [
        0,
        0
      ],
      "max": [
        1,
        1
      ],
      "type": "VEC2",
      "bufferView": 2,
      "byteOffset": 192
    },
    {
      "name": "Box002_1_0_indices",
      "componentType": 5123,
      "count": 36,
      "min": [
        0
      ],
      "max": [
        23
      ],
      "type": "SCALAR",
      "bufferView": 3,
      "byteOffset": 72
    }
  ],
  "asset": {
    "generator": "obj2gltf",
    "version": "2.0"
  },
  "buffers": [
    {
      "name": "2box",
      "byteLength": 1680,
      "uri": "data:application/octet-stream;base64,"
    }
  ],
  "bufferViews": [
    {
      "name": "bufferView_0",
      "buffer": 0,
      "byteLength": 576,
      "byteOffset": 0,
      "byteStride": 12,
      "target": 34962
    },
    {
      "name": "bufferView_1",
      "buffer": 0,
      "byteLength": 576,
      "byteOffset": 576,
      "byteStride": 12,
      "target": 34962
    },
    {
      "name": "bufferView_2",
      "buffer": 0,
      "byteLength": 384,
      "byteOffset": 1152,
      "byteStride": 8,
      "target": 34962
    },
    {
      "name": "bufferView_3",
      "buffer": 0,
      "byteLength": 144,
      "byteOffset": 1536,
      "target": 34963
    }
  ],
  "materials": [
    {
      "name": "default",
      "pbrMetallicRoughness": {
        "baseColorFactor": [
          0.5,
          0.5,
          0.5,
          1
        ],
        "metallicFactor": 0,
        "roughnessFactor": 1
      },
      "emissiveFactor": [
        0,
        0,
        0
      ],
      "alphaMode": "OPAQUE",
      "doubleSided": false
    }
  ],
  "meshes": [
    {
      "name": "Box001_1",
      "primitives": [
        {
          "attributes": {
            "POSITION": 0,
            "NORMAL": 1,
            "TEXCOORD_0": 2
          },
          "indices": 3,
          "material": 0,
          "mode": 4
        }
      ]
    },
    {
      "name": "Box002_1",
      "primitives": [
        {
          "attributes": {
            "POSITION": 4,
            "NORMAL": 5,
            "TEXCOORD_0": 6
          },
          "indices": 7,
          "material": 0,
          "mode": 4
        }
      ]
    }
  ],
  "nodes": [
    {
      "name": "Box001",
      "mesh": 0
    },
    {
      "name": "Box002",
      "mesh": 1
    }
  ],
  "scene": 0,
  "scenes": [
    {
      "nodes": [
        0,
        1
      ]
    }
  ]
}
