# 3ds Max Wavefront OBJ Exporter v0.97b - (c)2007 guruware
# File Created: 13.02.2019 22:11:50

#
# object Box001
#

v  35.9459 0.0000 -33.9008
v  35.9459 0.0000 -43.9008
v  45.9459 0.0000 -43.9008
v  45.9459 0.0000 -33.9008
v  35.9459 10.0000 -33.9008
v  45.9459 10.0000 -33.9008
v  45.9459 10.0000 -43.9008
v  35.9459 10.0000 -43.9008
# 8 vertices

vn 0.0000 -1.0000 -0.0000
vn 0.0000 1.0000 -0.0000
vn 0.0000 0.0000 1.0000
vn 1.0000 0.0000 -0.0000
vn 0.0000 0.0000 -1.0000
vn -1.0000 0.0000 -0.0000
# 6 vertex normals

g Box001
s 2
f 1//1 2//1 3//1 4//1 
s 4
f 5//2 6//2 7//2 8//2 
s 8
f 1//3 4//3 6//3 5//3 
s 16
f 4//4 3//4 7//4 6//4 
s 32
f 3//5 2//5 8//5 7//5 
s 64
f 2//6 1//6 5//6 8//6 
# 6 polygons

#
# object Box002
#

v  45.9767 0.0000 -33.9235
v  45.9767 0.0000 -43.9235
v  55.9767 0.0000 -43.9235
v  55.9767 0.0000 -33.9235
v  45.9767 10.0000 -33.9235
v  55.9767 10.0000 -33.9235
v  55.9767 10.0000 -43.9235
v  45.9767 10.0000 -43.9235
# 8 vertices

vn 0.0000 -1.0000 -0.0000
vn 0.0000 1.0000 -0.0000
vn 0.0000 0.0000 1.0000
vn 1.0000 0.0000 -0.0000
vn 0.0000 0.0000 -1.0000
vn -1.0000 0.0000 -0.0000
# 6 vertex normals

g Box002
s 2
f 9//7 10//7 11//7 12//7 
s 4
f 13//8 14//8 15//8 16//8 
s 8
f 9//9 12//9 14//9 13//9 
s 16
f 12//10 11//10 15//10 14//10 
s 32
f 11//11 10//11 16//11 15//11 
s 64
f 10//12 9//12 13//12 16//12 
# 6 polygons

