####
#
# OBJ File Generated by Meshlab
#
####
# Object 6Vertex.obj
#
# Vertices: 6
# Faces: 4
#
####
vn 0.003555 0.000000 1.570792
v 35.945900 0.000000 -33.900799
vn 0.003555 0.000000 1.570792
v 35.945900 10.000000 -33.900799
vn 0.003555 0.000000 3.141589
v 45.976700 0.000000 -33.923500
vn 0.000000 0.000000 1.570796
v 55.976700 0.000000 -33.923500
vn 0.000000 0.000000 1.570796
v 55.976700 10.000000 -33.923500
vn 0.003555 0.000000 3.141589
v 45.976700 10.000000 -33.923500
# 6 vertices, 0 vertices normals

f 1//1 3//3 6//6
f 1//1 6//6 2//2
f 3//3 4//4 5//5
f 3//3 5//5 6//6
# 4 faces, 0 coords texture

# End of File
